# Wavefront OBJ file automatically generated by Tiled2Unity

# Vertices (Count = 176)
v 0 -1 0
v -1 -1 0
v -1 0 0
v 0 0 0
v -2 -1 0
v -2 0 0
v -3 -1 0
v -3 0 0
v -4 -1 0
v -5 -1 0
v -5 0 0
v -4 0 0
v -6 -1 0
v -6 0 0
v -7 -1 0
v -7 0 0
v -8 -1 0
v -8 0 0
v -9 -1 0
v -9 0 0
v -10 -1 0
v -10 0 0
v -11 -1 0
v -11 0 0
v -12 -1 0
v -12 0 0
v -13 -1 0
v -13 0 0
v -14 -1 0
v -14 0 0
v -15 -1 0
v -15 0 0
v 0 -2 0
v -1 -2 0
v -2 -2 0
v -5 -2 0
v -6 -2 0
v -7 -2 0
v -8 -2 0
v -9 -2 0
v -10 -2 0
v -11 -2 0
v -12 -2 0
v -13 -2 0
v -14 -2 0
v -15 -2 0
v -2 -3 0
v -3 -3 0
v -3 -2 0
v -4 -3 0
v -4 -2 0
v -5 -3 0
v -7 -3 0
v -8 -3 0
v -9 -3 0
v -10 -3 0
v -11 -3 0
v -12 -3 0
v -13 -3 0
v -14 -3 0
v -15 -3 0
v -3 -4 0
v -4 -4 0
v -5 -4 0
v -6 -4 0
v -6 -3 0
v -7 -4 0
v -8 -4 0
v -9 -4 0
v -10 -4 0
v -11 -4 0
v -12 -4 0
v -13 -4 0
v -14 -4 0
v -15 -4 0
v 0 -5 0
v -1 -5 0
v -1 -4 0
v 0 -4 0
v -2 -5 0
v -2 -4 0
v -3 -5 0
v -4 -5 0
v -5 -5 0
v -6 -5 0
v -7 -5 0
v -8 -5 0
v -9 -5 0
v -10 -5 0
v -11 -5 0
v -12 -5 0
v -13 -5 0
v -14 -5 0
v -15 -5 0
v 0 -6 0
v -1 -6 0
v -2 -6 0
v -3 -6 0
v -4 -6 0
v -5 -6 0
v -6 -6 0
v -7 -6 0
v -8 -6 0
v -9 -6 0
v -10 -6 0
v -11 -6 0
v -12 -6 0
v -13 -6 0
v -14 -6 0
v -15 -6 0
v 0 -7 0
v -1 -7 0
v -2 -7 0
v -3 -7 0
v -4 -7 0
v -5 -7 0
v -6 -7 0
v -7 -7 0
v -8 -7 0
v -9 -7 0
v -10 -7 0
v -11 -7 0
v -12 -7 0
v -13 -7 0
v -14 -7 0
v -15 -7 0
v 0 -8 0
v -1 -8 0
v -2 -8 0
v -3 -8 0
v -4 -8 0
v -5 -8 0
v -6 -8 0
v -7 -8 0
v -8 -8 0
v -9 -8 0
v -10 -8 0
v -11 -8 0
v -12 -8 0
v -13 -8 0
v -14 -8 0
v -15 -8 0
v -2 -9 0
v -3 -9 0
v -4 -9 0
v -5 -9 0
v -6 -9 0
v -7 -9 0
v -8 -9 0
v -9 -9 0
v -10 -9 0
v -11 -9 0
v -12 -9 0
v -13 -9 0
v -14 -9 0
v -15 -9 0
v 0 -10 0
v -1 -10 0
v -1 -9 0
v 0 -9 0
v -2 -10 0
v -3 -10 0
v -4 -10 0
v -5 -10 0
v -6 -10 0
v -7 -10 0
v -9 -10 0
v -10 -10 0
v -11 -10 0
v -12 -10 0
v -13 -10 0
v -14 -10 0
v 0 -3 0
v -1 -3 0
v -8 -10 0
v -15 -10 0

# Texture cooridinates (Count = 276)
vt 0.4062538 0.7187538
vt 0.4374962 0.7187538
vt 0.4374962 0.7499962
vt 0.4062538 0.7499962
vt 0.5000038 0.7187538
vt 0.5312462 0.7187538
vt 0.5312462 0.7499962
vt 0.5000038 0.7499962
vt 0.5000038 0.7812538
vt 0.5312462 0.7812538
vt 0.5312462 0.8124962
vt 0.5000038 0.8124962
vt 0.03125381 0.7812538
vt 0.06249619 0.7812538
vt 0.06249619 0.8124962
vt 0.03125381 0.8124962
vt 0.06250381 0.7812538
vt 0.09374619 0.7812538
vt 0.09374619 0.8124962
vt 0.06250381 0.8124962
vt 0.3437538 0.9062538
vt 0.3749962 0.9062538
vt 0.3749962 0.9374962
vt 0.3437538 0.9374962
vt 0.1562538 0.9687538
vt 0.1874962 0.9687538
vt 0.1874962 0.9999962
vt 0.1562538 0.9999962
vt 0.3437538 0.4375038
vt 0.3749962 0.4375038
vt 0.3749962 0.4687462
vt 0.3437538 0.4687462
vt 0.2812538 0.2187538
vt 0.3124962 0.2187538
vt 0.3124962 0.2499962
vt 0.2812538 0.2499962
vt 0.1562538 0.2187538
vt 0.1874962 0.2187538
vt 0.1874962 0.2499962
vt 0.1562538 0.2499962
vt 0.5000038 0.09375381
vt 0.5312462 0.09375381
vt 0.5312462 0.1249962
vt 0.5000038 0.1249962
vt 0.9687538 0.5625038
vt 0.9999962 0.5625038
vt 0.9999962 0.5937462
vt 0.9687538 0.5937462
vt 0.3437538 0.4687538
vt 0.3749962 0.4687538
vt 0.3749962 0.4999962
vt 0.3437538 0.4999962
vt 0.1562538 0.7500038
vt 0.1874962 0.7500038
vt 0.1874962 0.7812462
vt 0.1562538 0.7812462
vt 0.1875038 0.7500038
vt 0.2187462 0.7500038
vt 0.2187462 0.7812462
vt 0.1875038 0.7812462
vt 0.1562538 0.8750038
vt 0.1874962 0.8750038
vt 0.1874962 0.9062462
vt 0.1562538 0.9062462
vt 0.3437538 0.4062538
vt 0.3749962 0.4062538
vt 0.3749962 0.4374962
vt 0.3437538 0.4374962
vt 0.2500038 0.1250038
vt 0.2812462 0.1250038
vt 0.2812462 0.1562462
vt 0.2500038 0.1562462
vt 0.5625038 0.06250381
vt 0.5937462 0.06250381
vt 0.5937462 0.09374619
vt 0.5625038 0.09374619
vt 0.5937538 0.06250381
vt 0.6249962 0.06250381
vt 0.6249962 0.09374619
vt 0.5937538 0.09374619
vt 0.6250038 0.06250381
vt 0.6562462 0.06250381
vt 0.6562462 0.09374619
vt 0.6250038 0.09374619
vt 0.3125038 0.1562538
vt 0.3437462 0.1562538
vt 0.3437462 0.1874962
vt 0.3125038 0.1874962
vt 0.9687538 0.8750038
vt 0.9999962 0.8750038
vt 0.9999962 0.9062462
vt 0.9687538 0.9062462
vt 0.3125038 0.9062538
vt 0.3437462 0.9062538
vt 0.3437462 0.9374962
vt 0.3125038 0.9374962
vt 0.2500038 0.2187538
vt 0.2812462 0.2187538
vt 0.2812462 0.2499962
vt 0.2500038 0.2499962
vt 0.3437538 0.1250038
vt 0.3749962 0.1250038
vt 0.3749962 0.1562462
vt 0.3437538 0.1562462
vt 0.5625038 0.03125381
vt 0.5937462 0.03125381
vt 0.5937462 0.06249619
vt 0.5625038 0.06249619
vt 0.5625038 0.3750038
vt 0.5937462 0.3750038
vt 0.5937462 0.4062462
vt 0.5625038 0.4062462
vt 0.6250038 0.03125381
vt 0.6562462 0.03125381
vt 0.6562462 0.06249619
vt 0.6250038 0.06249619
vt 0.2500038 0.1562538
vt 0.2812462 0.1562538
vt 0.2812462 0.1874962
vt 0.2500038 0.1874962
vt 0.2187538 0.8750038
vt 0.2499962 0.8750038
vt 0.2499962 0.9062462
vt 0.2187538 0.9062462
vt 0.2500038 0.8437538
vt 0.2812462 0.8437538
vt 0.2812462 0.8749962
vt 0.2500038 0.8749962
vt 0.4062538 0.8125038
vt 0.4374962 0.8125038
vt 0.4374962 0.8437462
vt 0.4062538 0.8437462
vt 0.4062538 0.09375381
vt 0.4374962 0.09375381
vt 0.4374962 0.1249962
vt 0.4062538 0.1249962
vt 0.1875038 0.7812538
vt 0.2187462 0.7812538
vt 0.2187462 0.8124962
vt 0.1875038 0.8124962
vt 0.2812538 0.8750038
vt 0.3124962 0.8750038
vt 0.3124962 0.9062462
vt 0.2812538 0.9062462
vt 0.3750038 0.8125038
vt 0.4062462 0.8125038
vt 0.4062462 0.8437462
vt 0.3750038 0.8437462
vt 0.3437538 0.8750038
vt 0.3749962 0.8750038
vt 0.3749962 0.9062462
vt 0.3437538 0.9062462
vt 0.4375038 0.1250038
vt 0.4687462 0.1250038
vt 0.4687462 0.1562462
vt 0.4375038 0.1562462
vt 0.5000038 0.6562538
vt 0.5312462 0.6562538
vt 0.5312462 0.6874962
vt 0.5000038 0.6874962
vt 0.5625038 0.4687538
vt 0.5937462 0.4687538
vt 0.5937462 0.4999962
vt 0.5625038 0.4999962
vt 3.814697E-06 0.8125038
vt 0.03124619 0.8125038
vt 0.03124619 0.8437462
vt 3.814697E-06 0.8437462
vt 0.5000038 0.6875038
vt 0.5312462 0.6875038
vt 0.5312462 0.7187462
vt 0.5000038 0.7187462
vt 0.5312538 0.6562538
vt 0.5624962 0.6562538
vt 0.5624962 0.6874962
vt 0.5312538 0.6874962
vt 0.1250038 0.9062538
vt 0.1562462 0.9062538
vt 0.1562462 0.9374962
vt 0.1250038 0.9374962
vt 0.3437538 0.2500038
vt 0.3749962 0.2500038
vt 0.3749962 0.2812462
vt 0.3437538 0.2812462
vt 0.2812538 0.2500038
vt 0.3124962 0.2500038
vt 0.3124962 0.2812462
vt 0.2812538 0.2812462
vt 0.7500038 0.5312538
vt 0.7812462 0.5312538
vt 0.7812462 0.5624962
vt 0.7500038 0.5624962
vt 0.4062538 0.2500038
vt 0.4374962 0.2500038
vt 0.4374962 0.2812462
vt 0.4062538 0.2812462
vt 0.3750038 0.2500038
vt 0.4062462 0.2500038
vt 0.4062462 0.2812462
vt 0.3750038 0.2812462
vt 3.814697E-06 0.8750038
vt 0.03124619 0.8750038
vt 0.03124619 0.9062462
vt 3.814697E-06 0.9062462
vt 0.4062538 0.7500038
vt 0.4374962 0.7500038
vt 0.4374962 0.7812462
vt 0.4062538 0.7812462
vt 0.5625038 0.5000038
vt 0.5937462 0.5000038
vt 0.5937462 0.5312462
vt 0.5625038 0.5312462
vt 0.6562538 0.4375038
vt 0.6874962 0.4375038
vt 0.6874962 0.4687462
vt 0.6562538 0.4687462
vt 0.1250038 0.8750038
vt 0.1562462 0.8750038
vt 0.1562462 0.9062462
vt 0.1250038 0.9062462
vt 3.814697E-06 0.7500038
vt 0.03124619 0.7500038
vt 0.03124619 0.7812462
vt 3.814697E-06 0.7812462
vt 0.3437538 0.2187538
vt 0.3749962 0.2187538
vt 0.3749962 0.2499962
vt 0.3437538 0.2499962
vt 0.4062538 0.1875038
vt 0.4374962 0.1875038
vt 0.4374962 0.2187462
vt 0.4062538 0.2187462
vt 0.3750038 0.2187538
vt 0.4062462 0.2187538
vt 0.4062462 0.2499962
vt 0.3750038 0.2499962
vt 0.1562538 0.7812538
vt 0.1874962 0.7812538
vt 0.1874962 0.8124962
vt 0.1562538 0.8124962
vt 0.03125381 0.7500038
vt 0.06249619 0.7500038
vt 0.06249619 0.7812462
vt 0.03125381 0.7812462
vt 0.06250381 0.7500038
vt 0.09374619 0.7500038
vt 0.09374619 0.7812462
vt 0.06250381 0.7812462
vt 0.7500038 0.2500038
vt 0.7812462 0.2500038
vt 0.7812462 0.2812462
vt 0.7500038 0.2812462
vt 0.7187538 0.2500038
vt 0.7499962 0.2500038
vt 0.7499962 0.2812462
vt 0.7187538 0.2812462
vt 0.6250038 0.2187538
vt 0.6562462 0.2187538
vt 0.6562462 0.2499962
vt 0.6250038 0.2499962
vt 0.8125038 0.2500038
vt 0.8437462 0.2500038
vt 0.8437462 0.2812462
vt 0.8125038 0.2812462
vt 0.7812538 0.2500038
vt 0.8124962 0.2500038
vt 0.8124962 0.2812462
vt 0.7812538 0.2812462
vt 0.06250381 0.9062538
vt 0.09374619 0.9062538
vt 0.09374619 0.9374962
vt 0.06250381 0.9374962
vt 0.4687538 0.5000038
vt 0.4999962 0.5000038
vt 0.4999962 0.5312462
vt 0.4687538 0.5312462

# Normal
vn 0 0 -1

# Groups (Count = 2)

g mesh_0001
f 1/1/1 2/2/1 3/3/1 4/4/1
f 2/5/1 5/6/1 6/7/1 3/8/1
f 5/9/1 7/10/1 8/11/1 6/12/1
f 9/13/1 10/14/1 11/15/1 12/16/1
f 10/17/1 13/18/1 14/19/1 11/20/1
f 13/21/1 15/22/1 16/23/1 14/24/1
f 15/25/1 17/26/1 18/27/1 16/28/1
f 17/29/1 19/30/1 20/31/1 18/32/1
f 19/33/1 21/34/1 22/35/1 20/36/1
f 21/37/1 23/38/1 24/39/1 22/40/1
f 23/41/1 25/42/1 26/43/1 24/44/1
f 25/37/1 27/38/1 28/39/1 26/40/1
f 27/45/1 29/46/1 30/47/1 28/48/1
f 29/49/1 31/50/1 32/51/1 30/52/1
f 33/53/1 34/54/1 2/55/1 1/56/1
f 34/57/1 35/58/1 5/59/1 2/60/1
f 36/17/1 37/18/1 13/19/1 10/20/1
f 37/17/1 38/18/1 15/19/1 13/20/1
f 38/61/1 39/62/1 17/63/1 15/64/1
f 39/65/1 40/66/1 19/67/1 17/68/1
f 40/69/1 41/70/1 21/71/1 19/72/1
f 41/73/1 42/74/1 23/75/1 21/76/1
f 42/77/1 43/78/1 25/79/1 23/80/1
f 43/81/1 44/82/1 27/83/1 25/84/1
f 44/85/1 45/86/1 29/87/1 27/88/1
f 45/49/1 46/50/1 31/51/1 29/52/1
f 47/89/1 48/90/1 49/91/1 35/92/1
f 48/89/1 50/90/1 51/91/1 49/92/1
f 50/93/1 52/94/1 36/95/1 51/96/1
f 53/17/1 54/18/1 39/19/1 38/20/1
f 54/97/1 55/98/1 40/99/1 39/100/1
f 55/101/1 56/102/1 41/103/1 40/104/1
f 56/105/1 57/106/1 42/107/1 41/108/1
f 57/109/1 58/110/1 43/111/1 42/112/1
f 58/113/1 59/114/1 44/115/1 43/116/1
f 59/117/1 60/118/1 45/119/1 44/120/1
f 60/49/1 61/50/1 46/51/1 45/52/1
f 62/121/1 63/122/1 50/123/1 48/124/1
f 63/125/1 64/126/1 52/127/1 50/128/1
f 64/13/1 65/14/1 66/15/1 52/16/1
f 67/129/1 68/130/1 54/131/1 53/132/1
f 68/85/1 69/86/1 55/87/1 54/88/1
f 69/117/1 70/118/1 56/119/1 55/120/1
f 70/133/1 71/134/1 57/135/1 56/136/1
f 71/117/1 72/118/1 58/119/1 57/120/1
f 72/133/1 73/134/1 59/135/1 58/136/1
f 73/117/1 74/118/1 60/119/1 59/120/1
f 74/49/1 75/50/1 61/51/1 60/52/1
f 76/137/1 77/138/1 78/139/1 79/140/1
f 77/13/1 80/14/1 81/15/1 78/16/1
f 82/141/1 83/142/1 63/143/1 62/144/1
f 83/145/1 84/146/1 64/147/1 63/148/1
f 85/17/1 86/18/1 67/19/1 65/20/1
f 86/149/1 87/150/1 68/151/1 67/152/1
f 87/29/1 88/30/1 69/31/1 68/32/1
f 88/101/1 89/102/1 70/103/1 69/104/1
f 89/153/1 90/154/1 71/155/1 70/156/1
f 90/117/1 91/118/1 72/119/1 71/120/1
f 91/153/1 92/154/1 73/155/1 72/156/1
f 92/117/1 93/118/1 74/119/1 73/120/1
f 93/49/1 94/50/1 75/51/1 74/52/1
f 95/157/1 96/158/1 77/159/1 76/160/1
f 96/5/1 97/6/1 80/7/1 77/8/1
f 97/137/1 98/138/1 82/139/1 80/140/1
f 98/13/1 99/14/1 83/15/1 82/16/1
f 100/161/1 101/162/1 85/163/1 84/164/1
f 101/165/1 102/166/1 86/167/1 85/168/1
f 103/29/1 104/30/1 88/31/1 87/32/1
f 104/101/1 105/102/1 89/103/1 88/104/1
f 105/117/1 106/118/1 90/119/1 89/120/1
f 106/117/1 107/118/1 91/119/1 90/120/1
f 107/117/1 108/118/1 92/119/1 91/120/1
f 108/117/1 109/118/1 93/119/1 92/120/1
f 109/49/1 110/50/1 94/51/1 93/52/1
f 111/53/1 112/54/1 96/55/1 95/56/1
f 112/169/1 113/170/1 97/171/1 96/172/1
f 113/173/1 114/174/1 98/175/1 97/176/1
f 114/17/1 115/18/1 99/19/1 98/20/1
f 116/161/1 117/162/1 101/163/1 100/164/1
f 117/177/1 118/178/1 102/179/1 101/180/1
f 119/181/1 120/182/1 104/183/1 103/184/1
f 120/185/1 121/186/1 105/187/1 104/188/1
f 121/189/1 122/190/1 106/191/1 105/192/1
f 122/101/1 123/102/1 107/103/1 106/104/1
f 123/189/1 124/190/1 108/191/1 107/192/1
f 124/193/1 125/194/1 109/195/1 108/196/1
f 125/197/1 126/198/1 110/199/1 109/200/1
f 127/201/1 128/202/1 112/203/1 111/204/1
f 128/201/1 129/202/1 113/203/1 112/204/1
f 129/205/1 130/206/1 114/207/1 113/208/1
f 131/209/1 132/210/1 116/211/1 115/212/1
f 132/213/1 133/214/1 117/215/1 116/216/1
f 133/217/1 134/218/1 118/219/1 117/220/1
f 134/221/1 135/222/1 119/223/1 118/224/1
f 135/225/1 136/226/1 120/227/1 119/228/1
f 136/33/1 137/34/1 121/35/1 120/36/1
f 137/37/1 138/38/1 122/39/1 121/40/1
f 138/101/1 139/102/1 123/103/1 122/104/1
f 139/37/1 140/38/1 124/39/1 123/40/1
f 140/229/1 141/230/1 125/231/1 124/232/1
f 141/233/1 142/234/1 126/235/1 125/236/1
f 143/17/1 144/18/1 130/19/1 129/20/1
f 144/237/1 145/238/1 131/239/1 130/240/1
f 145/161/1 146/162/1 132/163/1 131/164/1
f 146/177/1 147/178/1 133/179/1 132/180/1
f 147/241/1 148/242/1 134/243/1 133/244/1
f 148/245/1 149/246/1 135/247/1 134/248/1
f 149/17/1 150/18/1 136/19/1 135/20/1
f 151/249/1 152/250/1 138/251/1 137/252/1
f 152/253/1 153/254/1 139/255/1 138/256/1
f 153/17/1 154/18/1 140/19/1 139/20/1
f 155/13/1 156/14/1 142/15/1 141/16/1
f 157/201/1 158/202/1 159/203/1 160/204/1
f 161/237/1 162/238/1 144/239/1 143/240/1
f 162/257/1 163/258/1 145/259/1 144/260/1
f 163/161/1 164/162/1 146/163/1 145/164/1
f 164/177/1 165/178/1 147/179/1 146/180/1
f 165/241/1 166/242/1 148/243/1 147/244/1
f 167/13/1 168/14/1 151/15/1 150/16/1
f 168/53/1 169/54/1 152/55/1 151/56/1
f 169/261/1 170/262/1 153/263/1 152/264/1
f 170/265/1 171/266/1 154/267/1 153/268/1
f 171/17/1 172/18/1 155/19/1 154/20/1

g mesh_0002
f 7/269/1 9/270/1 12/271/1 8/272/1
f 35/269/1 49/270/1 7/271/1 5/272/1
f 49/269/1 51/270/1 9/271/1 7/272/1
f 51/269/1 36/270/1 10/271/1 9/272/1
f 173/269/1 174/270/1 34/271/1 33/272/1
f 174/269/1 47/270/1 35/271/1 34/272/1
f 52/269/1 66/270/1 37/271/1 36/272/1
f 66/269/1 53/270/1 38/271/1 37/272/1
f 79/269/1 78/270/1 174/271/1 173/272/1
f 78/269/1 81/270/1 47/271/1 174/272/1
f 81/269/1 62/270/1 48/271/1 47/272/1
f 65/269/1 67/270/1 53/271/1 66/272/1
f 80/269/1 82/270/1 62/271/1 81/272/1
f 84/269/1 85/270/1 65/271/1 64/272/1
f 99/269/1 100/270/1 84/271/1 83/272/1
f 102/269/1 103/270/1 87/271/1 86/272/1
f 115/269/1 116/270/1 100/271/1 99/272/1
f 118/269/1 119/270/1 103/271/1 102/272/1
f 130/269/1 131/270/1 115/271/1 114/272/1
f 160/269/1 159/270/1 128/271/1 127/272/1
f 159/269/1 143/270/1 129/271/1 128/272/1
f 150/269/1 151/270/1 137/271/1 136/272/1
f 154/269/1 155/270/1 141/271/1 140/272/1
f 158/269/1 161/270/1 143/271/1 159/272/1
f 166/269/1 175/270/1 149/271/1 148/272/1
f 175/269/1 167/270/1 150/271/1 149/272/1
f 172/269/1 176/270/1 156/271/1 155/272/1

g mesh_0003
f 39/29/1 40/30/1 19/31/1 17/32/1
f 40/69/1 41/70/1 21/71/1 19/72/1
f 54/29/1 55/30/1 40/31/1 39/32/1
f 55/101/1 56/102/1 41/103/1 40/104/1
f 68/273/1 69/274/1 55/275/1 54/276/1
f 69/101/1 70/102/1 56/103/1 55/104/1

