# Wavefront OBJ file automatically generated by Tiled2Unity

# Vertices (Count = 176)
v 0 -1 0
v -1 -1 0
v -1 0 0
v 0 0 0
v -2 -1 0
v -2 0 0
v -5 -1 0
v -6 -1 0
v -6 0 0
v -5 0 0
v -7 -1 0
v -7 0 0
v -8 -1 0
v -8 0 0
v -9 -1 0
v -9 0 0
v -11 -1 0
v -12 -1 0
v -12 0 0
v -11 0 0
v -13 -1 0
v -13 0 0
v -14 -1 0
v -14 0 0
v -15 -1 0
v -15 0 0
v -13 -2 0
v -14 -2 0
v -15 -2 0
v -13 -3 0
v -14 -3 0
v -15 -3 0
v 0 -8 0
v -1 -8 0
v -1 -7 0
v 0 -7 0
v -2 -10 0
v -3 -10 0
v -3 -9 0
v -2 -9 0
v -3 -1 0
v -3 0 0
v -4 -1 0
v -4 0 0
v -10 -1 0
v -10 0 0
v 0 -2 0
v -1 -2 0
v -2 -2 0
v -3 -2 0
v -4 -2 0
v -5 -2 0
v -6 -2 0
v -7 -2 0
v -8 -2 0
v -9 -2 0
v -10 -2 0
v -11 -2 0
v -12 -2 0
v 0 -3 0
v -1 -3 0
v -2 -3 0
v -3 -3 0
v -4 -3 0
v -5 -3 0
v -6 -3 0
v -7 -3 0
v -8 -3 0
v -9 -3 0
v -10 -3 0
v -11 -3 0
v -12 -3 0
v 0 -4 0
v -1 -4 0
v -2 -4 0
v -3 -4 0
v -4 -4 0
v -5 -4 0
v -6 -4 0
v -7 -4 0
v -8 -4 0
v -9 -4 0
v -10 -4 0
v -11 -4 0
v -12 -4 0
v -13 -4 0
v -14 -4 0
v -15 -4 0
v 0 -5 0
v -1 -5 0
v -2 -5 0
v -3 -5 0
v -4 -5 0
v -5 -5 0
v -6 -5 0
v -7 -5 0
v -8 -5 0
v -9 -5 0
v -10 -5 0
v -11 -5 0
v -12 -5 0
v -13 -5 0
v -14 -5 0
v -15 -5 0
v 0 -6 0
v -1 -6 0
v -2 -6 0
v -3 -6 0
v -4 -6 0
v -5 -6 0
v -6 -6 0
v -7 -6 0
v -8 -6 0
v -9 -6 0
v -10 -6 0
v -11 -6 0
v -12 -6 0
v -13 -6 0
v -14 -6 0
v -15 -6 0
v -2 -7 0
v -3 -7 0
v -4 -7 0
v -5 -7 0
v -6 -7 0
v -7 -7 0
v -8 -7 0
v -9 -7 0
v -10 -7 0
v -11 -7 0
v -12 -7 0
v -13 -7 0
v -14 -7 0
v -15 -7 0
v -2 -8 0
v -3 -8 0
v -4 -8 0
v -5 -8 0
v -6 -8 0
v -7 -8 0
v -8 -8 0
v -9 -8 0
v -10 -8 0
v -11 -8 0
v -12 -8 0
v -13 -8 0
v -14 -8 0
v -15 -8 0
v 0 -9 0
v -1 -9 0
v -4 -9 0
v -5 -9 0
v -6 -9 0
v -7 -9 0
v -8 -9 0
v -9 -9 0
v -10 -9 0
v -11 -9 0
v -12 -9 0
v -13 -9 0
v -14 -9 0
v -15 -9 0
v 0 -10 0
v -1 -10 0
v -4 -10 0
v -5 -10 0
v -6 -10 0
v -7 -10 0
v -8 -10 0
v -9 -10 0
v -10 -10 0
v -11 -10 0
v -12 -10 0
v -13 -10 0
v -14 -10 0
v -15 -10 0

# Texture cooridinates (Count = 244)
vt 0.3437538 0.3125038
vt 0.3749962 0.3125038
vt 0.3749962 0.3437462
vt 0.3437538 0.3437462
vt 0.3750038 0.3125038
vt 0.4062462 0.3125038
vt 0.4062462 0.3437462
vt 0.3750038 0.3437462
vt 0.09375381 0.8750038
vt 0.1249962 0.8750038
vt 0.1249962 0.9062462
vt 0.09375381 0.9062462
vt 0.4062538 0.2812538
vt 0.4374962 0.2812538
vt 0.4374962 0.3124962
vt 0.4062538 0.3124962
vt 0.03125381 0.9062538
vt 0.06249619 0.9062538
vt 0.06249619 0.9374962
vt 0.03125381 0.9374962
vt 0.4375038 0.4375038
vt 0.4687462 0.4375038
vt 0.4687462 0.4687462
vt 0.4375038 0.4687462
vt 0.3125038 0.2812538
vt 0.3437462 0.2812538
vt 0.3437462 0.3124962
vt 0.3125038 0.3124962
vt 0.3125038 0.3750038
vt 0.3437462 0.3750038
vt 0.3437462 0.4062462
vt 0.3125038 0.4062462
vt 3.814697E-06 0.5625038
vt 0.03124619 0.5625038
vt 0.03124619 0.5937462
vt 3.814697E-06 0.5937462
vt 0.2812538 0.5000038
vt 0.3124962 0.5000038
vt 0.3124962 0.5312462
vt 0.2812538 0.5312462
vt 0.6250038 0.8750038
vt 0.6562462 0.8750038
vt 0.6562462 0.9062462
vt 0.6250038 0.9062462
vt 0.1875038 0.1875038
vt 0.2187462 0.1875038
vt 0.2187462 0.2187462
vt 0.1875038 0.2187462
vt 0.2187538 0.1875038
vt 0.2499962 0.1875038
vt 0.2499962 0.2187462
vt 0.2187538 0.2187462
vt 0.2500038 0.1875038
vt 0.2812462 0.1875038
vt 0.2812462 0.2187462
vt 0.2500038 0.2187462
vt 0.1562538 0.7812538
vt 0.1874962 0.7812538
vt 0.1874962 0.8124962
vt 0.1562538 0.8124962
vt 0.3750038 0.7812538
vt 0.4062462 0.7812538
vt 0.4062462 0.8124962
vt 0.3750038 0.8124962
vt 0.3125038 0.1250038
vt 0.3437462 0.1250038
vt 0.3437462 0.1562462
vt 0.3125038 0.1562462
vt 0.2187538 0.1562538
vt 0.2499962 0.1562538
vt 0.2499962 0.1874962
vt 0.2187538 0.1874962
vt 0.2812538 0.1250038
vt 0.3124962 0.1250038
vt 0.3124962 0.1562462
vt 0.2812538 0.1562462
vt 0.1562538 0.9062538
vt 0.1874962 0.9062538
vt 0.1874962 0.9374962
vt 0.1562538 0.9374962
vt 0.1875038 0.9062538
vt 0.2187462 0.9062538
vt 0.2187462 0.9374962
vt 0.1875038 0.9374962
vt 0.3437538 0.8437538
vt 0.3749962 0.8437538
vt 0.3749962 0.8749962
vt 0.3437538 0.8749962
vt 0.3437538 0.3437538
vt 0.3749962 0.3437538
vt 0.3749962 0.3749962
vt 0.3437538 0.3749962
vt 0.3750038 0.3437538
vt 0.4062462 0.3437538
vt 0.4062462 0.3749962
vt 0.3750038 0.3749962
vt 0.4062538 0.7187538
vt 0.4374962 0.7187538
vt 0.4374962 0.7499962
vt 0.4062538 0.7499962
vt 0.2500038 0.7187538
vt 0.2812462 0.7187538
vt 0.2812462 0.7499962
vt 0.2500038 0.7499962
vt 0.2812538 0.1562538
vt 0.3124962 0.1562538
vt 0.3124962 0.1874962
vt 0.2812538 0.1874962
vt 0.2187538 0.1250038
vt 0.2499962 0.1250038
vt 0.2499962 0.1562462
vt 0.2187538 0.1562462
vt 0.3125038 0.1562538
vt 0.3437462 0.1562538
vt 0.3437462 0.1874962
vt 0.3125038 0.1874962
vt 0.1562538 0.9375038
vt 0.1874962 0.9375038
vt 0.1874962 0.9687462
vt 0.1562538 0.9687462
vt 0.1562538 0.7500038
vt 0.1874962 0.7500038
vt 0.1874962 0.7812462
vt 0.1562538 0.7812462
vt 0.1875038 0.7500038
vt 0.2187462 0.7500038
vt 0.2187462 0.7812462
vt 0.1875038 0.7812462
vt 0.1562538 0.8750038
vt 0.1874962 0.8750038
vt 0.1874962 0.9062462
vt 0.1562538 0.9062462
vt 0.1875038 0.8750038
vt 0.2187462 0.8750038
vt 0.2187462 0.9062462
vt 0.1875038 0.9062462
vt 0.3750038 0.9062538
vt 0.4062462 0.9062538
vt 0.4062462 0.9374962
vt 0.3750038 0.9374962
vt 0.4062538 0.9687538
vt 0.4374962 0.9687538
vt 0.4374962 0.9999962
vt 0.4062538 0.9999962
vt 0.4375038 0.9062538
vt 0.4687462 0.9062538
vt 0.4687462 0.9374962
vt 0.4375038 0.9374962
vt 0.4687538 0.8437538
vt 0.4999962 0.8437538
vt 0.4999962 0.8749962
vt 0.4687538 0.8749962
vt 0.4062538 0.8437538
vt 0.4374962 0.8437538
vt 0.4374962 0.8749962
vt 0.4062538 0.8749962
vt 0.5312538 0.9062538
vt 0.5624962 0.9062538
vt 0.5624962 0.9374962
vt 0.5312538 0.9374962
vt 0.4375038 0.8750038
vt 0.4687462 0.8750038
vt 0.4687462 0.9062462
vt 0.4375038 0.9062462
vt 0.2500038 0.8125038
vt 0.2812462 0.8125038
vt 0.2812462 0.8437462
vt 0.2500038 0.8437462
vt 0.5000038 0.8750038
vt 0.5312462 0.8750038
vt 0.5312462 0.9062462
vt 0.5000038 0.9062462
vt 0.4375038 0.8437538
vt 0.4687462 0.8437538
vt 0.4687462 0.8749962
vt 0.4375038 0.8749962
vt 0.2500038 0.8750038
vt 0.2812462 0.8750038
vt 0.2812462 0.9062462
vt 0.2500038 0.9062462
vt 0.5000038 0.9062538
vt 0.5312462 0.9062538
vt 0.5312462 0.9374962
vt 0.5000038 0.9374962
vt 0.4687538 0.7812538
vt 0.4999962 0.7812538
vt 0.4999962 0.8124962
vt 0.4687538 0.8124962
vt 0.4687538 0.8125038
vt 0.4999962 0.8125038
vt 0.4999962 0.8437462
vt 0.4687538 0.8437462
vt 0.5000038 0.7812538
vt 0.5312462 0.7812538
vt 0.5312462 0.8124962
vt 0.5000038 0.8124962
vt 0.3750038 0.8750038
vt 0.4062462 0.8750038
vt 0.4062462 0.9062462
vt 0.3750038 0.9062462
vt 0.3750038 0.2187538
vt 0.4062462 0.2187538
vt 0.4062462 0.2499962
vt 0.3750038 0.2499962
vt 0.7812538 0.9687538
vt 0.8124962 0.9687538
vt 0.8124962 0.9999962
vt 0.7812538 0.9999962
vt 0.5312538 0.8750038
vt 0.5624962 0.8750038
vt 0.5624962 0.9062462
vt 0.5312538 0.9062462
vt 0.5000038 0.7187538
vt 0.5312462 0.7187538
vt 0.5312462 0.7499962
vt 0.5000038 0.7499962
vt 0.6875038 0.8750038
vt 0.7187462 0.8750038
vt 0.7187462 0.9062462
vt 0.6875038 0.9062462
vt 0.3750038 0.1875038
vt 0.4062462 0.1875038
vt 0.4062462 0.2187462
vt 0.3750038 0.2187462
vt 0.7812538 0.9375038
vt 0.8124962 0.9375038
vt 0.8124962 0.9687462
vt 0.7812538 0.9687462
vt 0.3437538 0.9062538
vt 0.3749962 0.9062538
vt 0.3749962 0.9374962
vt 0.3437538 0.9374962
vt 0.8125038 0.9375038
vt 0.8437462 0.9375038
vt 0.8437462 0.9687462
vt 0.8125038 0.9687462
vt 0.6875038 0.9375038
vt 0.7187462 0.9375038
vt 0.7187462 0.9687462
vt 0.6875038 0.9687462
vt 0.09375381 0.1875038
vt 0.1249962 0.1875038
vt 0.1249962 0.2187462
vt 0.09375381 0.2187462

# Normal
vn 0 0 -1

# Groups (Count = 1)

g mesh_0001
f 1/1/1 2/2/1 3/3/1 4/4/1
f 2/5/1 5/6/1 6/7/1 3/8/1
f 7/9/1 8/10/1 9/11/1 10/12/1
f 8/9/1 11/10/1 12/11/1 9/12/1
f 11/13/1 13/14/1 14/15/1 12/16/1
f 13/17/1 15/18/1 16/19/1 14/20/1
f 17/21/1 18/22/1 19/23/1 20/24/1
f 18/25/1 21/26/1 22/27/1 19/28/1
f 21/29/1 23/30/1 24/31/1 22/32/1
f 23/33/1 25/34/1 26/35/1 24/36/1
f 27/21/1 28/22/1 23/23/1 21/24/1
f 28/37/1 29/38/1 25/39/1 23/40/1
f 30/1/1 31/2/1 28/3/1 27/4/1
f 31/5/1 32/6/1 29/7/1 28/8/1
f 33/41/1 34/42/1 35/43/1 36/44/1
f 37/13/1 38/14/1 39/15/1 40/16/1

g mesh_0002
f 5/45/1 41/46/1 42/47/1 6/48/1
f 41/49/1 43/50/1 44/51/1 42/52/1
f 43/53/1 7/54/1 10/55/1 44/56/1
f 15/1/1 45/2/1 46/3/1 16/4/1
f 45/5/1 17/6/1 20/7/1 46/8/1
f 47/57/1 48/58/1 2/59/1 1/60/1
f 48/61/1 49/62/1 5/63/1 2/64/1
f 49/65/1 50/66/1 41/67/1 5/68/1
f 50/69/1 51/70/1 43/71/1 41/72/1
f 51/73/1 52/74/1 7/75/1 43/76/1
f 52/17/1 53/18/1 8/19/1 7/20/1
f 53/17/1 54/18/1 11/19/1 8/20/1
f 54/77/1 55/78/1 13/79/1 11/80/1
f 55/81/1 56/82/1 15/83/1 13/84/1
f 56/85/1 57/86/1 45/87/1 15/88/1
f 57/17/1 58/18/1 17/19/1 45/20/1
f 58/89/1 59/90/1 18/91/1 17/92/1
f 59/93/1 27/94/1 21/95/1 18/96/1
f 60/97/1 61/98/1 48/99/1 47/100/1
f 61/101/1 62/102/1 49/103/1 48/104/1
f 62/105/1 63/106/1 50/107/1 49/108/1
f 63/109/1 64/110/1 51/111/1 50/112/1
f 64/113/1 65/114/1 52/115/1 51/116/1
f 65/17/1 66/18/1 53/19/1 52/20/1
f 66/77/1 67/78/1 54/79/1 53/80/1
f 67/117/1 68/118/1 55/119/1 54/120/1
f 68/117/1 69/118/1 56/119/1 55/120/1
f 69/117/1 70/118/1 57/119/1 56/120/1
f 70/81/1 71/82/1 58/83/1 57/84/1
f 71/85/1 72/86/1 59/87/1 58/88/1
f 72/85/1 30/86/1 27/87/1 59/88/1
f 73/121/1 74/122/1 61/123/1 60/124/1
f 74/125/1 75/126/1 62/127/1 61/128/1
f 75/17/1 76/18/1 63/19/1 62/20/1
f 76/17/1 77/18/1 64/19/1 63/20/1
f 77/17/1 78/18/1 65/19/1 64/20/1
f 78/17/1 79/18/1 66/19/1 65/20/1
f 79/129/1 80/130/1 67/131/1 66/132/1
f 80/133/1 81/134/1 68/135/1 67/136/1
f 81/129/1 82/130/1 69/131/1 68/132/1
f 82/117/1 83/118/1 70/119/1 69/120/1
f 83/117/1 84/118/1 71/119/1 70/120/1
f 84/133/1 85/134/1 72/135/1 71/136/1
f 85/17/1 86/18/1 30/19/1 72/20/1
f 86/17/1 87/18/1 31/19/1 30/20/1
f 87/17/1 88/18/1 32/19/1 31/20/1
f 89/85/1 90/86/1 74/87/1 73/88/1
f 90/17/1 91/18/1 75/19/1 74/20/1
f 91/77/1 92/78/1 76/79/1 75/80/1
f 92/81/1 93/82/1 77/83/1 76/84/1
f 93/17/1 94/18/1 78/19/1 77/20/1
f 94/57/1 95/58/1 79/59/1 78/60/1
f 95/61/1 96/62/1 80/63/1 79/64/1
f 96/77/1 97/78/1 81/79/1 80/80/1
f 97/137/1 98/138/1 82/139/1 81/140/1
f 98/117/1 99/118/1 83/119/1 82/120/1
f 99/133/1 100/134/1 84/135/1 83/136/1
f 100/141/1 101/142/1 85/143/1 84/144/1
f 101/17/1 102/18/1 86/19/1 85/20/1
f 102/17/1 103/18/1 87/19/1 86/20/1
f 103/17/1 104/18/1 88/19/1 87/20/1
f 105/117/1 106/118/1 90/119/1 89/120/1
f 106/145/1 107/146/1 91/147/1 90/148/1
f 107/117/1 108/118/1 92/119/1 91/120/1
f 108/133/1 109/134/1 93/135/1 92/136/1
f 109/17/1 110/18/1 94/19/1 93/20/1
f 110/149/1 111/150/1 95/151/1 94/152/1
f 111/101/1 112/102/1 96/103/1 95/104/1
f 112/153/1 113/154/1 97/155/1 96/156/1
f 113/81/1 114/82/1 98/83/1 97/84/1
f 114/129/1 115/130/1 99/131/1 98/132/1
f 115/157/1 116/158/1 100/159/1 99/160/1
f 116/117/1 117/118/1 101/119/1 100/120/1
f 117/157/1 118/158/1 102/159/1 101/160/1
f 118/137/1 119/138/1 103/139/1 102/140/1
f 119/17/1 120/18/1 104/19/1 103/20/1
f 36/161/1 35/162/1 106/163/1 105/164/1
f 35/165/1 121/166/1 107/167/1 106/168/1
f 121/169/1 122/170/1 108/171/1 107/172/1
f 122/173/1 123/174/1 109/175/1 108/176/1
f 123/17/1 124/18/1 110/19/1 109/20/1
f 124/149/1 125/150/1 111/151/1 110/152/1
f 125/125/1 126/126/1 112/127/1 111/128/1
f 126/129/1 127/130/1 113/131/1 112/132/1
f 127/133/1 128/134/1 114/135/1 113/136/1
f 128/77/1 129/78/1 115/79/1 114/80/1
f 129/117/1 130/118/1 116/119/1 115/120/1
f 130/117/1 131/118/1 117/119/1 116/120/1
f 131/177/1 132/178/1 118/179/1 117/180/1
f 132/17/1 133/18/1 119/19/1 118/20/1
f 133/17/1 134/18/1 120/19/1 119/20/1
f 34/77/1 135/78/1 121/79/1 35/80/1
f 135/181/1 136/182/1 122/183/1 121/184/1
f 136/17/1 137/18/1 123/19/1 122/20/1
f 137/185/1 138/186/1 124/187/1 123/188/1
f 138/189/1 139/190/1 125/191/1 124/192/1
f 139/17/1 140/18/1 126/19/1 125/20/1
f 140/57/1 141/58/1 127/59/1 126/60/1
f 141/193/1 142/194/1 128/195/1 127/196/1
f 142/129/1 143/130/1 129/131/1 128/132/1
f 143/117/1 144/118/1 130/119/1 129/120/1
f 144/117/1 145/118/1 131/119/1 130/120/1
f 145/197/1 146/198/1 132/199/1 131/200/1
f 146/201/1 147/202/1 133/203/1 132/204/1
f 147/17/1 148/18/1 134/19/1 133/20/1
f 149/205/1 150/206/1 34/207/1 33/208/1
f 150/129/1 40/130/1 135/131/1 34/132/1
f 40/209/1 39/210/1 136/211/1 135/212/1
f 39/81/1 151/82/1 137/83/1 136/84/1
f 151/17/1 152/18/1 138/19/1 137/20/1
f 152/121/1 153/122/1 139/123/1 138/124/1
f 153/213/1 154/214/1 140/215/1 139/216/1
f 154/189/1 155/190/1 141/191/1 140/192/1
f 155/17/1 156/18/1 142/19/1 141/20/1
f 156/17/1 157/18/1 143/19/1 142/20/1
f 157/129/1 158/130/1 144/131/1 143/132/1
f 158/133/1 159/134/1 145/135/1 144/136/1
f 159/217/1 160/218/1 146/219/1 145/220/1
f 160/221/1 161/222/1 147/223/1 146/224/1
f 161/17/1 162/18/1 148/19/1 147/20/1
f 163/225/1 164/226/1 150/227/1 149/228/1
f 164/229/1 37/230/1 40/231/1 150/232/1
f 38/169/1 165/170/1 151/171/1 39/172/1
f 165/81/1 166/82/1 152/83/1 151/84/1
f 166/17/1 167/18/1 153/19/1 152/20/1
f 167/121/1 168/122/1 154/123/1 153/124/1
f 168/125/1 169/126/1 155/127/1 154/128/1
f 169/17/1 170/18/1 156/19/1 155/20/1
f 170/233/1 171/234/1 157/235/1 156/236/1
f 171/225/1 172/226/1 158/227/1 157/228/1
f 172/237/1 173/238/1 159/239/1 158/240/1
f 173/205/1 174/206/1 160/207/1 159/208/1
f 174/17/1 175/18/1 161/19/1 160/20/1
f 175/241/1 176/242/1 162/243/1 161/244/1

