# Wavefront OBJ file automatically generated by Tiled2Unity

# Vertices (Count = 240)
v 0 -1 0
v -1 -1 0
v -1 0 0
v 0 0 0
v -2 -1 0
v -2 0 0
v -3 -1 0
v -3 0 0
v -4 -1 0
v -4 0 0
v -5 -1 0
v -5 0 0
v -6 -1 0
v -6 0 0
v -7 -1 0
v -7 0 0
v -8 -1 0
v -8 0 0
v -9 -1 0
v -9 0 0
v -10 -1 0
v -10 0 0
v -11 -1 0
v -11 0 0
v -12 -1 0
v -12 0 0
v -13 -1 0
v -13 0 0
v -14 -1 0
v -14 0 0
v -15 -1 0
v -15 0 0
v 0 -2 0
v -1 -2 0
v -2 -2 0
v -3 -2 0
v -4 -2 0
v -5 -2 0
v -6 -2 0
v -7 -2 0
v -8 -2 0
v -9 -2 0
v -10 -2 0
v -11 -2 0
v -12 -2 0
v -13 -2 0
v -14 -2 0
v -15 -2 0
v 0 -3 0
v -1 -3 0
v -2 -3 0
v -3 -3 0
v -4 -3 0
v -5 -3 0
v -6 -3 0
v -7 -3 0
v -8 -3 0
v -9 -3 0
v -10 -3 0
v -11 -3 0
v -12 -3 0
v -13 -3 0
v -14 -3 0
v -15 -3 0
v 0 -4 0
v -1 -4 0
v -2 -4 0
v -3 -4 0
v -4 -4 0
v -5 -4 0
v -6 -4 0
v -7 -4 0
v -8 -4 0
v -9 -4 0
v -10 -4 0
v -11 -4 0
v -12 -4 0
v -13 -4 0
v -14 -4 0
v -15 -4 0
v 0 -5 0
v -1 -5 0
v -2 -5 0
v -3 -5 0
v -4 -5 0
v -5 -5 0
v -6 -5 0
v -7 -5 0
v -8 -5 0
v -9 -5 0
v -10 -5 0
v -11 -5 0
v -12 -5 0
v -13 -5 0
v -14 -5 0
v -15 -5 0
v 0 -6 0
v -1 -6 0
v -2 -6 0
v -3 -6 0
v -4 -6 0
v -5 -6 0
v -6 -6 0
v -7 -6 0
v -8 -6 0
v -9 -6 0
v -10 -6 0
v -11 -6 0
v -12 -6 0
v -13 -6 0
v -14 -6 0
v -15 -6 0
v 0 -7 0
v -1 -7 0
v -2 -7 0
v -3 -7 0
v -4 -7 0
v -5 -7 0
v -6 -7 0
v -7 -7 0
v -8 -7 0
v -9 -7 0
v -10 -7 0
v -11 -7 0
v -12 -7 0
v -13 -7 0
v -14 -7 0
v -15 -7 0
v 0 -8 0
v -1 -8 0
v -2 -8 0
v -3 -8 0
v -4 -8 0
v -5 -8 0
v -6 -8 0
v -7 -8 0
v -8 -8 0
v -9 -8 0
v -10 -8 0
v -11 -8 0
v -12 -8 0
v -13 -8 0
v -14 -8 0
v -15 -8 0
v 0 -9 0
v -1 -9 0
v -2 -9 0
v -3 -9 0
v -4 -9 0
v -5 -9 0
v -6 -9 0
v -7 -9 0
v -8 -9 0
v -9 -9 0
v -10 -9 0
v -11 -9 0
v -12 -9 0
v -13 -9 0
v -14 -9 0
v -15 -9 0
v 0 -10 0
v -1 -10 0
v -2 -10 0
v -3 -10 0
v -4 -10 0
v -5 -10 0
v -6 -10 0
v -7 -10 0
v -8 -10 0
v -9 -10 0
v -10 -10 0
v -11 -10 0
v -12 -10 0
v -13 -10 0
v -14 -10 0
v -15 -10 0
v 0 -11 0
v -1 -11 0
v -2 -11 0
v -3 -11 0
v -4 -11 0
v -5 -11 0
v -6 -11 0
v -7 -11 0
v -8 -11 0
v -9 -11 0
v -10 -11 0
v -11 -11 0
v -12 -11 0
v -13 -11 0
v -14 -11 0
v -15 -11 0
v 0 -12 0
v -1 -12 0
v -2 -12 0
v -3 -12 0
v -4 -12 0
v -5 -12 0
v -6 -12 0
v -7 -12 0
v -8 -12 0
v -9 -12 0
v -10 -12 0
v -11 -12 0
v -12 -12 0
v -13 -12 0
v -14 -12 0
v -15 -12 0
v 0 -13 0
v -1 -13 0
v -2 -13 0
v -3 -13 0
v -4 -13 0
v -5 -13 0
v -6 -13 0
v -7 -13 0
v -8 -13 0
v -9 -13 0
v -10 -13 0
v -11 -13 0
v -12 -13 0
v -13 -13 0
v -14 -13 0
v -15 -13 0
v 0 -14 0
v -1 -14 0
v -2 -14 0
v -3 -14 0
v -4 -14 0
v -5 -14 0
v -6 -14 0
v -7 -14 0
v -8 -14 0
v -9 -14 0
v -10 -14 0
v -11 -14 0
v -12 -14 0
v -13 -14 0
v -14 -14 0
v -15 -14 0

# Texture cooridinates (Count = 232)
vt 0.06250381 0.7500038
vt 0.09374619 0.7500038
vt 0.09374619 0.7812462
vt 0.06250381 0.7812462
vt 0.1562538 0.7812538
vt 0.1874962 0.7812538
vt 0.1874962 0.8124962
vt 0.1562538 0.8124962
vt 0.6562538 0.2812538
vt 0.6874962 0.2812538
vt 0.6874962 0.3124962
vt 0.6562538 0.3124962
vt 0.2187538 0.4687538
vt 0.2499962 0.4687538
vt 0.2499962 0.4999962
vt 0.2187538 0.4999962
vt 0.4062538 0.5312538
vt 0.4374962 0.5312538
vt 0.4374962 0.5624962
vt 0.4062538 0.5624962
vt 0.3750038 0.5312538
vt 0.4062462 0.5312538
vt 0.4062462 0.5624962
vt 0.3750038 0.5624962
vt 0.2500038 0.4687538
vt 0.2812462 0.4687538
vt 0.2812462 0.4999962
vt 0.2500038 0.4999962
vt 0.1875038 0.8750038
vt 0.2187462 0.8750038
vt 0.2187462 0.9062462
vt 0.1875038 0.9062462
vt 0.03125381 0.8437538
vt 0.06249619 0.8437538
vt 0.06249619 0.8749962
vt 0.03125381 0.8749962
vt 0.9062538 0.2812538
vt 0.9374962 0.2812538
vt 0.9374962 0.3124962
vt 0.9062538 0.3124962
vt 0.1875038 0.7500038
vt 0.2187462 0.7500038
vt 0.2187462 0.7812462
vt 0.1875038 0.7812462
vt 0.3125038 0.5000038
vt 0.3437462 0.5000038
vt 0.3437462 0.5312462
vt 0.3125038 0.5312462
vt 0.3125038 0.4375038
vt 0.3437462 0.4375038
vt 0.3437462 0.4687462
vt 0.3125038 0.4687462
vt 0.2812538 0.4687538
vt 0.3124962 0.4687538
vt 0.3124962 0.4999962
vt 0.2812538 0.4999962
vt 0.2812538 0.4375038
vt 0.3124962 0.4375038
vt 0.3124962 0.4687462
vt 0.2812538 0.4687462
vt 0.1875038 0.9062538
vt 0.2187462 0.9062538
vt 0.2187462 0.9374962
vt 0.1875038 0.9374962
vt 0.5937538 0.2812538
vt 0.6249962 0.2812538
vt 0.6249962 0.3124962
vt 0.5937538 0.3124962
vt 0.1875038 0.7812538
vt 0.2187462 0.7812538
vt 0.2187462 0.8124962
vt 0.1875038 0.8124962
vt 0.3750038 0.4062538
vt 0.4062462 0.4062538
vt 0.4062462 0.4374962
vt 0.3750038 0.4374962
vt 0.4062538 0.2187538
vt 0.4374962 0.2187538
vt 0.4374962 0.2499962
vt 0.4062538 0.2499962
vt 0.6875038 0.1875038
vt 0.7187462 0.1875038
vt 0.7187462 0.2187462
vt 0.6875038 0.2187462
vt 0.7187538 0.1875038
vt 0.7499962 0.1875038
vt 0.7499962 0.2187462
vt 0.7187538 0.2187462
vt 0.4375038 0.8437538
vt 0.4687462 0.8437538
vt 0.4687462 0.8749962
vt 0.4375038 0.8749962
vt 0.7500038 0.2500038
vt 0.7812462 0.2500038
vt 0.7812462 0.2812462
vt 0.7500038 0.2812462
vt 0.7812538 0.2500038
vt 0.8124962 0.2500038
vt 0.8124962 0.2812462
vt 0.7812538 0.2812462
vt 0.3750038 0.3750038
vt 0.4062462 0.3750038
vt 0.4062462 0.4062462
vt 0.3750038 0.4062462
vt 0.3750038 0.1875038
vt 0.4062462 0.1875038
vt 0.4062462 0.2187462
vt 0.3750038 0.2187462
vt 0.5937538 0.1875038
vt 0.6249962 0.1875038
vt 0.6249962 0.2187462
vt 0.5937538 0.2187462
vt 0.6562538 0.1875038
vt 0.6874962 0.1875038
vt 0.6874962 0.2187462
vt 0.6562538 0.2187462
vt 0.1250038 0.5000038
vt 0.1562462 0.5000038
vt 0.1562462 0.5312462
vt 0.1250038 0.5312462
vt 0.7500038 0.2812538
vt 0.7812462 0.2812538
vt 0.7812462 0.3124962
vt 0.7500038 0.3124962
vt 0.7812538 0.2187538
vt 0.8124962 0.2187538
vt 0.8124962 0.2499962
vt 0.7812538 0.2499962
vt 0.7500038 0.1875038
vt 0.7812462 0.1875038
vt 0.7812462 0.2187462
vt 0.7500038 0.2187462
vt 0.2187538 0.4375038
vt 0.2499962 0.4375038
vt 0.2499962 0.4687462
vt 0.2187538 0.4687462
vt 0.3437538 0.3750038
vt 0.3749962 0.3750038
vt 0.3749962 0.4062462
vt 0.3437538 0.4062462
vt 0.3125038 0.4062538
vt 0.3437462 0.4062538
vt 0.3437462 0.4374962
vt 0.3125038 0.4374962
vt 0.2500038 0.4375038
vt 0.2812462 0.4375038
vt 0.2812462 0.4687462
vt 0.2500038 0.4687462
vt 0.1250038 0.4375038
vt 0.1562462 0.4375038
vt 0.1562462 0.4687462
vt 0.1250038 0.4687462
vt 0.6875038 0.2812538
vt 0.7187462 0.2812538
vt 0.7187462 0.3124962
vt 0.6875038 0.3124962
vt 0.7500038 0.2187538
vt 0.7812462 0.2187538
vt 0.7812462 0.2499962
vt 0.7500038 0.2499962
vt 0.4687538 0.7812538
vt 0.4999962 0.7812538
vt 0.4999962 0.8124962
vt 0.4687538 0.8124962
vt 0.8125038 0.2500038
vt 0.8437462 0.2500038
vt 0.8437462 0.2812462
vt 0.8125038 0.2812462
vt 0.6562538 0.2187538
vt 0.6874962 0.2187538
vt 0.6874962 0.2499962
vt 0.6562538 0.2499962
vt 0.4062538 0.5625038
vt 0.4374962 0.5625038
vt 0.4374962 0.5937462
vt 0.4062538 0.5937462
vt 0.3437538 0.5000038
vt 0.3749962 0.5000038
vt 0.3749962 0.5312462
vt 0.3437538 0.5312462
vt 0.1250038 0.4687538
vt 0.1562462 0.4687538
vt 0.1562462 0.4999962
vt 0.1250038 0.4999962
vt 0.5937538 0.2500038
vt 0.6249962 0.2500038
vt 0.6249962 0.2812462
vt 0.5937538 0.2812462
vt 0.06250381 0.9375038
vt 0.09374619 0.9375038
vt 0.09374619 0.9687462
vt 0.06250381 0.9687462
vt 0.1562538 0.5937538
vt 0.1874962 0.5937538
vt 0.1874962 0.6249962
vt 0.1562538 0.6249962
vt 0.7812538 0.2812538
vt 0.8124962 0.2812538
vt 0.8124962 0.3124962
vt 0.7812538 0.3124962
vt 0.06250381 0.8750038
vt 0.09374619 0.8750038
vt 0.09374619 0.9062462
vt 0.06250381 0.9062462
vt 0.03125381 0.7812538
vt 0.06249619 0.7812538
vt 0.06249619 0.8124962
vt 0.03125381 0.8124962
vt 0.5312538 0.7187538
vt 0.5624962 0.7187538
vt 0.5624962 0.7499962
vt 0.5312538 0.7499962
vt 0.8125038 0.2812538
vt 0.8437462 0.2812538
vt 0.8437462 0.3124962
vt 0.8125038 0.3124962
vt 3.814697E-06 0.8125038
vt 0.03124619 0.8125038
vt 0.03124619 0.8437462
vt 3.814697E-06 0.8437462
vt 0.3125038 0.5937538
vt 0.3437462 0.5937538
vt 0.3437462 0.6249962
vt 0.3125038 0.6249962
vt 0.3125038 0.5312538
vt 0.3437462 0.5312538
vt 0.3437462 0.5624962
vt 0.3125038 0.5624962
vt 0.3437538 0.4687538
vt 0.3749962 0.4687538
vt 0.3749962 0.4999962
vt 0.3437538 0.4999962

# Normal
vn 0 0 -1

# Groups (Count = 2)

g mesh_0001
f 1/1/1 2/2/1 3/3/1 4/4/1
f 2/5/1 5/6/1 6/7/1 3/8/1
f 5/9/1 7/10/1 8/11/1 6/12/1
f 7/13/1 9/14/1 10/15/1 8/16/1
f 9/17/1 11/18/1 12/19/1 10/20/1
f 11/21/1 13/22/1 14/23/1 12/24/1
f 13/17/1 15/18/1 16/19/1 14/20/1
f 15/17/1 17/18/1 18/19/1 16/20/1
f 17/17/1 19/18/1 20/19/1 18/20/1
f 19/21/1 21/22/1 22/23/1 20/24/1
f 21/17/1 23/18/1 24/19/1 22/20/1
f 23/25/1 25/26/1 26/27/1 24/28/1
f 25/29/1 27/30/1 28/31/1 26/32/1
f 27/33/1 29/34/1 30/35/1 28/36/1
f 29/33/1 31/34/1 32/35/1 30/36/1
f 33/33/1 34/34/1 2/35/1 1/36/1
f 34/37/1 35/38/1 5/39/1 2/40/1
f 35/41/1 36/42/1 7/43/1 5/44/1
f 36/45/1 37/46/1 9/47/1 7/48/1
f 37/49/1 38/50/1 11/51/1 9/52/1
f 38/45/1 39/46/1 13/47/1 11/48/1
f 39/49/1 40/50/1 15/51/1 13/52/1
f 40/53/1 41/54/1 17/55/1 15/56/1
f 41/57/1 42/58/1 19/59/1 17/60/1
f 42/45/1 43/46/1 21/47/1 19/48/1
f 43/49/1 44/50/1 23/51/1 21/52/1
f 44/45/1 45/46/1 25/47/1 23/48/1
f 45/61/1 46/62/1 27/63/1 25/64/1
f 46/33/1 47/34/1 29/35/1 27/36/1
f 47/1/1 48/2/1 31/3/1 29/4/1
f 49/33/1 50/34/1 34/35/1 33/36/1
f 50/65/1 51/66/1 35/67/1 34/68/1
f 51/69/1 52/70/1 36/71/1 35/72/1
f 52/73/1 53/74/1 37/75/1 36/76/1
f 53/77/1 54/78/1 38/79/1 37/80/1
f 54/45/1 55/46/1 39/47/1 38/48/1
f 55/81/1 56/82/1 40/83/1 39/84/1
f 56/85/1 57/86/1 41/87/1 40/88/1
f 57/85/1 58/86/1 42/87/1 41/88/1
f 58/45/1 59/46/1 43/47/1 42/48/1
f 59/77/1 60/78/1 44/79/1 43/80/1
f 60/45/1 61/46/1 45/47/1 44/48/1
f 61/89/1 62/90/1 46/91/1 45/92/1
f 62/93/1 63/94/1 47/95/1 46/96/1
f 63/97/1 64/98/1 48/99/1 47/100/1
f 65/33/1 66/34/1 50/35/1 49/36/1
f 66/33/1 67/34/1 51/35/1 50/36/1
f 67/33/1 68/34/1 52/35/1 51/36/1
f 68/101/1 69/102/1 53/103/1 52/104/1
f 69/105/1 70/106/1 54/107/1 53/108/1
f 70/45/1 71/46/1 55/47/1 54/48/1
f 71/109/1 72/110/1 56/111/1 55/112/1
f 72/113/1 73/114/1 57/115/1 56/116/1
f 73/113/1 74/114/1 58/115/1 57/116/1
f 74/45/1 75/46/1 59/47/1 58/48/1
f 75/105/1 76/106/1 60/107/1 59/108/1
f 76/117/1 77/118/1 61/119/1 60/120/1
f 77/89/1 78/90/1 62/91/1 61/92/1
f 78/121/1 79/122/1 63/123/1 62/124/1
f 79/125/1 80/126/1 64/127/1 63/128/1
f 81/33/1 82/34/1 66/35/1 65/36/1
f 82/33/1 83/34/1 67/35/1 66/36/1
f 83/33/1 84/34/1 68/35/1 67/36/1
f 84/129/1 85/130/1 69/131/1 68/132/1
f 85/113/1 86/114/1 70/115/1 69/116/1
f 86/133/1 87/134/1 71/135/1 70/136/1
f 87/137/1 88/138/1 72/139/1 71/140/1
f 88/109/1 89/110/1 73/111/1 72/112/1
f 89/141/1 90/142/1 74/143/1 73/144/1
f 90/145/1 91/146/1 75/147/1 74/148/1
f 91/109/1 92/110/1 76/111/1 75/112/1
f 92/149/1 93/150/1 77/151/1 76/152/1
f 93/29/1 94/30/1 78/31/1 77/32/1
f 94/153/1 95/154/1 79/155/1 78/156/1
f 95/1/1 96/2/1 80/3/1 79/4/1
f 97/33/1 98/34/1 82/35/1 81/36/1
f 98/157/1 99/158/1 83/159/1 82/160/1
f 99/9/1 100/10/1 84/11/1 83/12/1
f 100/45/1 101/46/1 85/47/1 84/48/1
f 101/109/1 102/110/1 86/111/1 85/112/1
f 102/57/1 103/58/1 87/59/1 86/60/1
f 103/53/1 104/54/1 88/55/1 87/56/1
f 104/109/1 105/110/1 89/111/1 88/112/1
f 105/53/1 106/54/1 90/55/1 89/56/1
f 106/57/1 107/58/1 91/59/1 90/60/1
f 107/109/1 108/110/1 92/111/1 91/112/1
f 108/85/1 109/86/1 93/87/1 92/88/1
f 109/161/1 110/162/1 94/163/1 93/164/1
f 110/165/1 111/166/1 95/167/1 94/168/1
f 111/97/1 112/98/1 96/99/1 95/100/1
f 113/33/1 114/34/1 98/35/1 97/36/1
f 114/33/1 115/34/1 99/35/1 98/36/1
f 115/37/1 116/38/1 100/39/1 99/40/1
f 116/45/1 117/46/1 101/47/1 100/48/1
f 117/109/1 118/110/1 102/111/1 101/112/1
f 118/85/1 119/86/1 103/87/1 102/88/1
f 119/85/1 120/86/1 104/87/1 103/88/1
f 120/113/1 121/114/1 105/115/1 104/116/1
f 121/85/1 122/86/1 106/87/1 105/88/1
f 122/85/1 123/86/1 107/87/1 106/88/1
f 123/113/1 124/114/1 108/115/1 107/116/1
f 124/117/1 125/118/1 109/119/1 108/120/1
f 125/61/1 126/62/1 110/63/1 109/64/1
f 126/33/1 127/34/1 111/35/1 110/36/1
f 127/157/1 128/158/1 112/159/1 111/160/1
f 129/1/1 130/2/1 114/3/1 113/4/1
f 130/33/1 131/34/1 115/35/1 114/36/1
f 131/153/1 132/154/1 116/155/1 115/156/1
f 132/45/1 133/46/1 117/47/1 116/48/1
f 133/109/1 134/110/1 118/111/1 117/112/1
f 134/113/1 135/114/1 119/115/1 118/116/1
f 135/113/1 136/114/1 120/115/1 119/116/1
f 136/113/1 137/114/1 121/115/1 120/116/1
f 137/113/1 138/114/1 122/115/1 121/116/1
f 138/113/1 139/114/1 123/115/1 122/116/1
f 139/113/1 140/114/1 124/115/1 123/116/1
f 140/45/1 141/46/1 125/47/1 124/48/1
f 141/89/1 142/90/1 126/91/1 125/92/1
f 142/33/1 143/34/1 127/35/1 126/36/1
f 143/33/1 144/34/1 128/35/1 127/36/1
f 145/33/1 146/34/1 130/35/1 129/36/1
f 146/93/1 147/94/1 131/95/1 130/96/1
f 147/169/1 148/170/1 132/171/1 131/172/1
f 148/145/1 149/146/1 133/147/1 132/148/1
f 149/117/1 150/118/1 134/119/1 133/120/1
f 150/109/1 151/110/1 135/111/1 134/112/1
f 151/113/1 152/114/1 136/115/1 135/116/1
f 152/117/1 153/118/1 137/119/1 136/120/1
f 153/173/1 154/174/1 138/175/1 137/176/1
f 154/177/1 155/178/1 139/179/1 138/180/1
f 155/177/1 156/178/1 140/179/1 139/180/1
f 156/145/1 157/146/1 141/147/1 140/148/1
f 157/89/1 158/90/1 142/91/1 141/92/1
f 158/33/1 159/34/1 143/35/1 142/36/1
f 159/33/1 160/34/1 144/35/1 143/36/1
f 161/33/1 162/34/1 146/35/1 145/36/1
f 162/121/1 163/122/1 147/123/1 146/124/1
f 163/169/1 164/170/1 148/171/1 147/172/1
f 164/181/1 165/182/1 149/183/1 148/184/1
f 165/149/1 166/150/1 150/151/1 149/152/1
f 166/109/1 167/110/1 151/111/1 150/112/1
f 167/113/1 168/114/1 152/115/1 151/116/1
f 168/149/1 169/150/1 153/151/1 152/152/1
f 169/181/1 170/182/1 154/183/1 153/184/1
f 170/181/1 171/182/1 155/183/1 154/184/1
f 171/181/1 172/182/1 156/183/1 155/184/1
f 172/181/1 173/182/1 157/183/1 156/184/1
f 173/29/1 174/30/1 158/31/1 157/32/1
f 174/33/1 175/34/1 159/35/1 158/36/1
f 175/33/1 176/34/1 160/35/1 159/36/1
f 177/33/1 178/34/1 162/35/1 161/36/1
f 178/157/1 179/158/1 163/159/1 162/160/1
f 179/9/1 180/10/1 164/11/1 163/12/1
f 180/97/1 181/98/1 165/99/1 164/100/1
f 181/33/1 182/34/1 166/35/1 165/36/1
f 182/93/1 183/94/1 167/95/1 166/96/1
f 183/185/1 184/186/1 168/187/1 167/188/1
f 184/185/1 185/186/1 169/187/1 168/188/1
f 185/185/1 186/186/1 170/187/1 169/188/1
f 186/185/1 187/186/1 171/187/1 170/188/1
f 187/69/1 188/70/1 172/71/1 171/72/1
f 188/189/1 189/190/1 173/191/1 172/192/1
f 189/33/1 190/34/1 174/35/1 173/36/1
f 190/33/1 191/34/1 175/35/1 174/36/1
f 191/33/1 192/34/1 176/35/1 175/36/1
f 193/33/1 194/34/1 178/35/1 177/36/1
f 194/33/1 195/34/1 179/35/1 178/36/1
f 195/157/1 196/158/1 180/159/1 179/160/1
f 196/165/1 197/166/1 181/167/1 180/168/1
f 197/193/1 198/194/1 182/195/1 181/196/1
f 198/157/1 199/158/1 183/159/1 182/160/1
f 199/65/1 200/66/1 184/67/1 183/68/1
f 200/65/1 201/66/1 185/67/1 184/68/1
f 201/165/1 202/166/1 186/167/1 185/168/1
f 202/9/1 203/10/1 187/11/1 186/12/1
f 203/197/1 204/198/1 188/199/1 187/200/1
f 204/33/1 205/34/1 189/35/1 188/36/1
f 205/33/1 206/34/1 190/35/1 189/36/1
f 206/201/1 207/202/1 191/203/1 190/204/1
f 207/205/1 208/206/1 192/207/1 191/208/1
f 209/33/1 210/34/1 194/35/1 193/36/1
f 210/33/1 211/34/1 195/35/1 194/36/1
f 211/33/1 212/34/1 196/35/1 195/36/1
f 212/33/1 213/34/1 197/35/1 196/36/1
f 213/33/1 214/34/1 198/35/1 197/36/1
f 214/1/1 215/2/1 199/3/1 198/4/1
f 215/157/1 216/158/1 200/159/1 199/160/1
f 216/125/1 217/126/1 201/127/1 200/128/1
f 217/33/1 218/34/1 202/35/1 201/36/1
f 218/157/1 219/158/1 203/159/1 202/160/1
f 219/125/1 220/126/1 204/127/1 203/128/1
f 220/33/1 221/34/1 205/35/1 204/36/1
f 221/33/1 222/34/1 206/35/1 205/36/1
f 222/33/1 223/34/1 207/35/1 206/36/1
f 223/33/1 224/34/1 208/35/1 207/36/1
f 225/209/1 226/210/1 210/211/1 209/212/1
f 226/213/1 227/214/1 211/215/1 210/216/1
f 227/69/1 228/70/1 212/71/1 211/72/1
f 228/1/1 229/2/1 213/3/1 212/4/1
f 229/33/1 230/34/1 214/35/1 213/36/1
f 230/33/1 231/34/1 215/35/1 214/36/1
f 231/33/1 232/34/1 216/35/1 215/36/1
f 232/33/1 233/34/1 217/35/1 216/36/1
f 233/33/1 234/34/1 218/35/1 217/36/1
f 234/1/1 235/2/1 219/3/1 218/4/1
f 235/217/1 236/218/1 220/219/1 219/220/1
f 236/33/1 237/34/1 221/35/1 220/36/1
f 237/205/1 238/206/1 222/207/1 221/208/1
f 238/33/1 239/34/1 223/35/1 222/36/1
f 239/221/1 240/222/1 224/223/1 223/224/1

g mesh_0002
f 52/225/1 53/226/1 37/227/1 36/228/1
f 68/225/1 69/226/1 53/227/1 52/228/1
f 84/229/1 85/230/1 69/231/1 68/232/1
f 85/109/1 86/110/1 70/111/1 69/112/1

