# Wavefront OBJ file automatically generated by Tiled2Unity

# Vertices (Count = 176)
v 0 -1 0
v -1 -1 0
v -1 0 0
v 0 0 0
v -2 -1 0
v -3 -1 0
v -3 0 0
v -2 0 0
v -4 -1 0
v -4 0 0
v -5 -1 0
v -5 0 0
v -6 -1 0
v -7 -1 0
v -7 0 0
v -6 0 0
v -10 -1 0
v -11 -1 0
v -11 0 0
v -10 0 0
v 0 -2 0
v -1 -2 0
v -2 -2 0
v -3 -2 0
v -4 -2 0
v -5 -2 0
v -6 -2 0
v -7 -2 0
v -8 -2 0
v -8 -1 0
v -10 -2 0
v -11 -2 0
v -12 -2 0
v -13 -2 0
v -13 -1 0
v -12 -1 0
v -14 -2 0
v -14 -1 0
v -5 -3 0
v -6 -3 0
v -14 -3 0
v -15 -3 0
v -15 -2 0
v -5 -4 0
v -6 -4 0
v -7 -4 0
v -7 -3 0
v -8 -4 0
v -8 -3 0
v 0 -5 0
v -1 -5 0
v -1 -4 0
v 0 -4 0
v -2 -5 0
v -2 -4 0
v -6 -5 0
v -7 -5 0
v -8 -5 0
v -9 -5 0
v -9 -4 0
v -10 -5 0
v -10 -4 0
v -11 -5 0
v -11 -4 0
v 0 -6 0
v -1 -6 0
v -2 -6 0
v -3 -6 0
v -3 -5 0
v -4 -6 0
v -5 -6 0
v -5 -5 0
v -4 -5 0
v -6 -6 0
v -7 -6 0
v -8 -6 0
v -9 -6 0
v -10 -6 0
v -11 -6 0
v -1 -7 0
v -2 -7 0
v -4 -7 0
v -5 -7 0
v -6 -7 0
v -7 -7 0
v -8 -7 0
v -10 -7 0
v -11 -7 0
v -12 -7 0
v -12 -6 0
v -4 -8 0
v -5 -8 0
v -6 -8 0
v -7 -8 0
v -8 -8 0
v -9 -8 0
v -9 -7 0
v -10 -8 0
v -11 -8 0
v -12 -8 0
v -13 -8 0
v -13 -7 0
v 0 -9 0
v -1 -9 0
v -1 -8 0
v 0 -8 0
v -8 -9 0
v -9 -9 0
v -10 -9 0
v -11 -9 0
v -12 -9 0
v -13 -9 0
v 0 -10 0
v -1 -10 0
v -2 -10 0
v -3 -10 0
v -3 -9 0
v -2 -9 0
v -7 -10 0
v -8 -10 0
v -7 -9 0
v -9 -10 0
v -10 -10 0
v -8 0 0
v -9 -1 0
v -9 0 0
v -12 0 0
v -13 0 0
v -14 0 0
v -15 -1 0
v -15 0 0
v -9 -2 0
v 0 -3 0
v -1 -3 0
v -2 -3 0
v -3 -3 0
v -4 -3 0
v -9 -3 0
v -10 -3 0
v -11 -3 0
v -12 -3 0
v -13 -3 0
v -3 -4 0
v -4 -4 0
v -12 -4 0
v -13 -4 0
v -14 -4 0
v -15 -4 0
v -12 -5 0
v -13 -5 0
v -14 -5 0
v -15 -5 0
v -13 -6 0
v -14 -6 0
v -15 -6 0
v 0 -7 0
v -3 -7 0
v -14 -7 0
v -15 -7 0
v -2 -8 0
v -3 -8 0
v -14 -8 0
v -15 -8 0
v -4 -9 0
v -5 -9 0
v -6 -9 0
v -14 -9 0
v -15 -9 0
v -4 -10 0
v -5 -10 0
v -6 -10 0
v -11 -10 0
v -12 -10 0
v -13 -10 0
v -14 -10 0
v -15 -10 0

# Texture cooridinates (Count = 228)
vt 0.06250381 0.1562538
vt 0.09374619 0.1562538
vt 0.09374619 0.1874962
vt 0.06250381 0.1874962
vt 3.814697E-06 0.1562538
vt 0.03124619 0.1562538
vt 0.03124619 0.1874962
vt 3.814697E-06 0.1874962
vt 0.03125381 0.1562538
vt 0.06249619 0.1562538
vt 0.06249619 0.1874962
vt 0.03125381 0.1874962
vt 0.06250381 0.9062538
vt 0.09374619 0.9062538
vt 0.09374619 0.9374962
vt 0.06250381 0.9374962
vt 0.06250381 0.1250038
vt 0.09374619 0.1250038
vt 0.09374619 0.1562462
vt 0.06250381 0.1562462
vt 3.814697E-06 0.1250038
vt 0.03124619 0.1250038
vt 0.03124619 0.1562462
vt 3.814697E-06 0.1562462
vt 0.03125381 0.1250038
vt 0.06249619 0.1250038
vt 0.06249619 0.1562462
vt 0.03125381 0.1562462
vt 0.03125381 0.9062538
vt 0.06249619 0.9062538
vt 0.06249619 0.9374962
vt 0.03125381 0.9374962
vt 0.06250381 0.8750038
vt 0.09374619 0.8750038
vt 0.09374619 0.9062462
vt 0.06250381 0.9062462
vt 0.4375038 0.9687538
vt 0.4687462 0.9687538
vt 0.4687462 0.9999962
vt 0.4375038 0.9999962
vt 0.4062538 0.2812538
vt 0.4374962 0.2812538
vt 0.4374962 0.3124962
vt 0.4062538 0.3124962
vt 0.3437538 0.3125038
vt 0.3749962 0.3125038
vt 0.3749962 0.3437462
vt 0.3437538 0.3437462
vt 0.3750038 0.3125038
vt 0.4062462 0.3125038
vt 0.4062462 0.3437462
vt 0.3750038 0.3437462
vt 0.4687538 0.3125038
vt 0.4999962 0.3125038
vt 0.4999962 0.3437462
vt 0.4687538 0.3437462
vt 0.7500038 0.4062538
vt 0.7812462 0.4062538
vt 0.7812462 0.4374962
vt 0.7500038 0.4374962
vt 0.4375038 0.4375038
vt 0.4687462 0.4375038
vt 0.4687462 0.4687462
vt 0.4375038 0.4687462
vt 0.4062538 0.4375038
vt 0.4374962 0.4375038
vt 0.4374962 0.4687462
vt 0.4062538 0.4687462
vt 0.8125038 3.814697E-06
vt 0.8437462 3.814697E-06
vt 0.8437462 0.03124619
vt 0.8125038 0.03124619
vt 0.1562538 0.9062538
vt 0.1874962 0.9062538
vt 0.1874962 0.9374962
vt 0.1562538 0.9374962
vt 0.1875038 0.8437538
vt 0.2187462 0.8437538
vt 0.2187462 0.8749962
vt 0.1875038 0.8749962
vt 0.7187538 0.3750038
vt 0.7499962 0.3750038
vt 0.7499962 0.4062462
vt 0.7187538 0.4062462
vt 0.4687538 0.8750038
vt 0.4999962 0.8750038
vt 0.4999962 0.9062462
vt 0.4687538 0.9062462
vt 0.1875038 0.9062538
vt 0.2187462 0.9062538
vt 0.2187462 0.9374962
vt 0.1875038 0.9374962
vt 0.3750038 0.2187538
vt 0.4062462 0.2187538
vt 0.4062462 0.2499962
vt 0.3750038 0.2499962
vt 0.9687538 0.2187538
vt 0.9999962 0.2187538
vt 0.9999962 0.2499962
vt 0.9687538 0.2499962
vt 0.1562538 0.8750038
vt 0.1874962 0.8750038
vt 0.1874962 0.9062462
vt 0.1562538 0.9062462
vt 0.5000038 0.9062538
vt 0.5312462 0.9062538
vt 0.5312462 0.9374962
vt 0.5000038 0.9374962
vt 0.03125381 0.9687538
vt 0.06249619 0.9687538
vt 0.06249619 0.9999962
vt 0.03125381 0.9999962
vt 0.2812538 0.9062538
vt 0.3124962 0.9062538
vt 0.3124962 0.9374962
vt 0.2812538 0.9374962
vt 0.2187538 0.8125038
vt 0.2499962 0.8125038
vt 0.2499962 0.8437462
vt 0.2187538 0.8437462
vt 0.1875038 0.8750038
vt 0.2187462 0.8750038
vt 0.2187462 0.9062462
vt 0.1875038 0.9062462
vt 0.3125038 0.9062538
vt 0.3437462 0.9062538
vt 0.3437462 0.9374962
vt 0.3125038 0.9374962
vt 0.9687538 0.3437538
vt 0.9999962 0.3437538
vt 0.9999962 0.3749962
vt 0.9687538 0.3749962
vt 0.3750038 0.9062538
vt 0.4062462 0.9062538
vt 0.4062462 0.9374962
vt 0.3750038 0.9374962
vt 0.2812538 0.8750038
vt 0.3124962 0.8750038
vt 0.3124962 0.9062462
vt 0.2812538 0.9062462
vt 0.4375038 0.8125038
vt 0.4687462 0.8125038
vt 0.4687462 0.8437462
vt 0.4375038 0.8437462
vt 0.6875038 0.4062538
vt 0.7187462 0.4062538
vt 0.7187462 0.4374962
vt 0.6875038 0.4374962
vt 0.6562538 0.3750038
vt 0.6874962 0.3750038
vt 0.6874962 0.4062462
vt 0.6562538 0.4062462
vt 0.4062538 0.9687538
vt 0.4374962 0.9687538
vt 0.4374962 0.9999962
vt 0.4062538 0.9999962
vt 0.3437538 0.2187538
vt 0.3749962 0.2187538
vt 0.3749962 0.2499962
vt 0.3437538 0.2499962
vt 0.4062538 0.8125038
vt 0.4374962 0.8125038
vt 0.4374962 0.8437462
vt 0.4062538 0.8437462
vt 0.4375038 0.9062538
vt 0.4687462 0.9062538
vt 0.4687462 0.9374962
vt 0.4375038 0.9374962
vt 0.4062538 0.2187538
vt 0.4374962 0.2187538
vt 0.4374962 0.2499962
vt 0.4062538 0.2499962
vt 0.4062538 0.1250038
vt 0.4374962 0.1250038
vt 0.4374962 0.1562462
vt 0.4062538 0.1562462
vt 0.4687538 0.1250038
vt 0.4999962 0.1250038
vt 0.4999962 0.1562462
vt 0.4687538 0.1562462
vt 0.2187538 0.8750038
vt 0.2499962 0.8750038
vt 0.2499962 0.9062462
vt 0.2187538 0.9062462
vt 0.4062538 0.1562538
vt 0.4374962 0.1562538
vt 0.4374962 0.1874962
vt 0.4062538 0.1874962
vt 0.3750038 0.8750038
vt 0.4062462 0.8750038
vt 0.4062462 0.9062462
vt 0.3750038 0.9062462
vt 0.4062538 0.9062538
vt 0.4374962 0.9062538
vt 0.4374962 0.9374962
vt 0.4062538 0.9374962
vt 0.8437538 0.4062538
vt 0.8749962 0.4062538
vt 0.8749962 0.4374962
vt 0.8437538 0.4374962
vt 0.7187538 0.9375038
vt 0.7499962 0.9375038
vt 0.7499962 0.9687462
vt 0.7187538 0.9687462
vt 0.1562538 0.9375038
vt 0.1874962 0.9375038
vt 0.1874962 0.9687462
vt 0.1562538 0.9687462
vt 0.2500038 0.9062538
vt 0.2812462 0.9062538
vt 0.2812462 0.9374962
vt 0.2500038 0.9374962
vt 0.6250038 0.9375038
vt 0.6562462 0.9375038
vt 0.6562462 0.9687462
vt 0.6250038 0.9687462
vt 0.6875038 0.9375038
vt 0.7187462 0.9375038
vt 0.7187462 0.9687462
vt 0.6875038 0.9687462
vt 0.8437538 0.6250038
vt 0.8749962 0.6250038
vt 0.8749962 0.6562462
vt 0.8437538 0.6562462
vt 0.8750038 0.6250038
vt 0.9062462 0.6250038
vt 0.9062462 0.6562462
vt 0.8750038 0.6562462

# Normal
vn 0 0 -1

# Groups (Count = 1)

g mesh_0001
f 1/1/1 2/2/1 3/3/1 4/4/1
f 5/1/1 6/2/1 7/3/1 8/4/1
f 6/5/1 9/6/1 10/7/1 7/8/1
f 9/9/1 11/10/1 12/11/1 10/12/1
f 13/13/1 14/14/1 15/15/1 16/16/1
f 17/13/1 18/14/1 19/15/1 20/16/1
f 21/17/1 22/18/1 2/19/1 1/20/1
f 23/17/1 24/18/1 6/19/1 5/20/1
f 24/21/1 25/22/1 9/23/1 6/24/1
f 25/25/1 26/26/1 11/27/1 9/28/1
f 26/13/1 27/14/1 13/15/1 11/16/1
f 27/13/1 28/14/1 14/15/1 13/16/1
f 28/13/1 29/14/1 30/15/1 14/16/1
f 31/13/1 32/14/1 18/15/1 17/16/1
f 33/13/1 34/14/1 35/15/1 36/16/1
f 34/13/1 37/14/1 38/15/1 35/16/1
f 39/13/1 40/14/1 27/15/1 26/16/1
f 41/13/1 42/14/1 43/15/1 37/16/1
f 44/13/1 45/14/1 40/15/1 39/16/1
f 45/13/1 46/14/1 47/15/1 40/16/1
f 46/13/1 48/14/1 49/15/1 47/16/1
f 50/29/1 51/30/1 52/31/1 53/32/1
f 51/13/1 54/14/1 55/15/1 52/16/1
f 56/13/1 57/14/1 46/15/1 45/16/1
f 58/13/1 59/14/1 60/15/1 48/16/1
f 59/13/1 61/14/1 62/15/1 60/16/1
f 61/13/1 63/14/1 64/15/1 62/16/1
f 65/29/1 66/30/1 51/31/1 50/32/1
f 66/13/1 67/14/1 54/15/1 51/16/1
f 67/13/1 68/14/1 69/15/1 54/16/1
f 70/13/1 71/14/1 72/15/1 73/16/1
f 71/13/1 74/14/1 56/15/1 72/16/1
f 74/13/1 75/14/1 57/15/1 56/16/1
f 75/13/1 76/14/1 58/15/1 57/16/1
f 77/13/1 78/14/1 61/15/1 59/16/1
f 78/13/1 79/14/1 63/15/1 61/16/1
f 80/13/1 81/14/1 67/15/1 66/16/1
f 82/13/1 83/14/1 71/15/1 70/16/1
f 83/13/1 84/14/1 74/15/1 71/16/1
f 85/13/1 86/14/1 76/15/1 75/16/1
f 87/13/1 88/14/1 79/15/1 78/16/1
f 88/13/1 89/14/1 90/15/1 79/16/1
f 91/13/1 92/14/1 83/15/1 82/16/1
f 92/13/1 93/14/1 84/15/1 83/16/1
f 94/13/1 95/14/1 86/15/1 85/16/1
f 95/13/1 96/14/1 97/15/1 86/16/1
f 98/13/1 99/14/1 88/15/1 87/16/1
f 99/13/1 100/14/1 89/15/1 88/16/1
f 100/13/1 101/14/1 102/15/1 89/16/1
f 103/13/1 104/14/1 105/15/1 106/16/1
f 107/13/1 108/14/1 96/15/1 95/16/1
f 108/13/1 109/14/1 98/15/1 96/16/1
f 109/13/1 110/14/1 99/15/1 98/16/1
f 110/13/1 111/14/1 100/15/1 99/16/1
f 111/13/1 112/14/1 101/15/1 100/16/1
f 113/33/1 114/34/1 104/35/1 103/36/1
f 115/13/1 116/14/1 117/15/1 118/16/1
f 119/13/1 120/14/1 107/15/1 121/16/1
f 122/13/1 123/14/1 109/15/1 108/16/1

g mesh_0002
f 2/37/1 5/38/1 8/39/1 3/40/1
f 11/41/1 13/42/1 16/43/1 12/44/1
f 14/45/1 30/46/1 124/47/1 15/48/1
f 30/49/1 125/50/1 126/51/1 124/52/1
f 125/53/1 17/54/1 20/55/1 126/56/1
f 18/57/1 36/58/1 127/59/1 19/60/1
f 36/61/1 35/62/1 128/63/1 127/64/1
f 35/65/1 38/66/1 129/67/1 128/68/1
f 38/61/1 130/62/1 131/63/1 129/64/1
f 22/69/1 23/70/1 5/71/1 2/72/1
f 29/73/1 132/74/1 125/75/1 30/76/1
f 132/77/1 31/78/1 17/79/1 125/80/1
f 32/81/1 33/82/1 36/83/1 18/84/1
f 37/61/1 43/62/1 130/63/1 38/64/1
f 133/85/1 134/86/1 22/87/1 21/88/1
f 134/37/1 135/38/1 23/39/1 22/40/1
f 135/89/1 136/90/1 24/91/1 23/92/1
f 136/93/1 137/94/1 25/95/1 24/96/1
f 137/29/1 39/30/1 26/31/1 25/32/1
f 40/41/1 47/42/1 28/43/1 27/44/1
f 47/97/1 49/98/1 29/99/1 28/100/1
f 49/101/1 138/102/1 132/103/1 29/104/1
f 138/105/1 139/106/1 31/107/1 132/108/1
f 139/41/1 140/42/1 32/43/1 31/44/1
f 140/109/1 141/110/1 33/111/1 32/112/1
f 141/113/1 142/114/1 34/115/1 33/116/1
f 142/37/1 41/38/1 37/39/1 34/40/1
f 53/41/1 52/42/1 134/43/1 133/44/1
f 52/117/1 55/118/1 135/119/1 134/120/1
f 55/121/1 143/122/1 136/123/1 135/124/1
f 143/73/1 144/74/1 137/75/1 136/76/1
f 144/125/1 44/126/1 39/127/1 137/128/1
f 48/129/1 60/130/1 138/131/1 49/132/1
f 60/101/1 62/102/1 139/103/1 138/104/1
f 62/133/1 64/134/1 140/135/1 139/136/1
f 64/81/1 145/82/1 141/83/1 140/84/1
f 145/137/1 146/138/1 142/139/1 141/140/1
f 146/101/1 147/102/1 41/103/1 142/104/1
f 147/89/1 148/90/1 42/91/1 41/92/1
f 54/93/1 69/94/1 143/95/1 55/96/1
f 69/101/1 73/102/1 144/103/1 143/104/1
f 73/141/1 72/142/1 44/143/1 144/144/1
f 72/93/1 56/94/1 45/95/1 44/96/1
f 57/41/1 58/42/1 48/43/1 46/44/1
f 63/145/1 149/146/1 145/147/1 64/148/1
f 149/149/1 150/150/1 146/151/1 145/152/1
f 150/153/1 151/154/1 147/155/1 146/156/1
f 151/101/1 152/102/1 148/103/1 147/104/1
f 68/93/1 70/94/1 73/95/1 69/96/1
f 76/157/1 77/158/1 59/159/1 58/160/1
f 79/161/1 90/162/1 149/163/1 63/164/1
f 90/109/1 153/110/1 150/111/1 149/112/1
f 153/101/1 154/102/1 151/103/1 150/104/1
f 154/165/1 155/166/1 152/167/1 151/168/1
f 156/157/1 80/158/1 66/159/1 65/160/1
f 81/169/1 157/170/1 68/171/1 67/172/1
f 157/157/1 82/158/1 70/159/1 68/160/1
f 84/41/1 85/42/1 75/43/1 74/44/1
f 86/173/1 97/174/1 77/175/1 76/176/1
f 97/177/1 87/178/1 78/179/1 77/180/1
f 89/145/1 102/146/1 153/147/1 90/148/1
f 102/149/1 158/150/1 154/151/1 153/152/1
f 158/181/1 159/182/1 155/183/1 154/184/1
f 106/157/1 105/158/1 80/159/1 156/160/1
f 105/73/1 160/74/1 81/75/1 80/76/1
f 160/125/1 161/126/1 157/127/1 81/128/1
f 161/169/1 91/170/1 82/171/1 157/172/1
f 93/157/1 94/158/1 85/159/1 84/160/1
f 96/185/1 98/186/1 87/187/1 97/188/1
f 101/81/1 162/82/1 158/83/1 102/84/1
f 162/137/1 163/138/1 159/139/1 158/140/1
f 104/101/1 118/102/1 160/103/1 105/104/1
f 118/189/1 117/190/1 161/191/1 160/192/1
f 117/41/1 164/42/1 91/43/1 161/44/1
f 164/193/1 165/194/1 92/195/1 91/196/1
f 165/157/1 166/158/1 93/159/1 92/160/1
f 166/41/1 121/42/1 94/43/1 93/44/1
f 121/157/1 107/158/1 95/159/1 94/160/1
f 112/197/1 167/198/1 162/199/1 101/200/1
f 167/201/1 168/202/1 163/203/1 162/204/1
f 114/157/1 115/158/1 118/159/1 104/160/1
f 116/73/1 169/74/1 164/75/1 117/76/1
f 169/205/1 170/206/1 165/207/1 164/208/1
f 170/209/1 171/210/1 166/211/1 165/212/1
f 171/157/1 119/158/1 121/159/1 166/160/1
f 120/157/1 122/158/1 108/159/1 107/160/1
f 123/213/1 172/214/1 110/215/1 109/216/1
f 172/201/1 173/202/1 111/203/1 110/204/1
f 173/217/1 174/218/1 112/219/1 111/220/1
f 174/221/1 175/222/1 167/223/1 112/224/1
f 175/225/1 176/226/1 168/227/1 167/228/1

